<?xml version="1.0" encoding="UTF-8"?>
<svg id="_レイヤー_2" data-name="レイヤー 2" xmlns="http://www.w3.org/2000/svg" viewBox="0 0 1309.56 226.03">
  <defs>
    <style>
      .cls-1 {
        fill: #ff7be5;
      }

      .cls-2 {
        fill: #c27be5;
      }
    </style>
  </defs>
  <g id="_レイヤー_1-2" data-name="レイヤー 1">
    <g>
      <path class="cls-1" d="M170.18,123.19c-5.63-8.69-13.98-15.04-25.05-19.04,7.25-3.71,12.73-7.81,16.45-12.3,6.66-8.01,9.99-18.6,9.99-31.79s-3.33-23.78-9.99-32.96c-11.07-14.94-29.87-22.61-56.41-23H0v215.92h98.13c11.07,0,21.32-.97,30.77-2.93,9.45-1.95,17.65-5.57,24.6-10.84,6.17-4.59,11.31-10.25,15.42-16.99,6.46-10.16,9.7-21.63,9.7-34.42s-2.82-22.95-8.45-31.64ZM43.19,41.6h47.59c10.48,0,19.1,1.12,25.85,3.37,7.83,3.22,11.75,9.86,11.75,19.92,0,9.08-2.94,15.38-8.81,18.9-5.97,3.61-13.71,5.42-23.21,5.42h-53.18v-47.61ZM118.54,178.71c-5.29,2.54-12.68,3.81-22.18,3.81h-53.18v-57.57h53.91c9.4.1,16.7,1.32,21.89,3.66,9.3,4.2,13.95,11.92,13.95,23.14,0,13.28-4.8,22.27-14.4,26.95Z"/>
      <path class="cls-1" d="M346.08,209.03c-1.37-1.95-2.2-5.66-2.5-11.13-.2-7.23-.29-13.38-.29-18.46v-73.24c0-19.24-6.81-32.32-20.42-39.26-13.61-6.93-29.18-10.4-46.71-10.4-26.93,0-45.93,7.03-57,21.09-6.95,8.99-10.87,20.46-11.75,34.42h40.4c.98-6.15,2.94-11.03,5.88-14.65,4.11-4.88,11.11-7.32,21.01-7.32,8.81,0,15.5,1.25,20.05,3.74s6.83,7.01,6.83,13.55c0,5.37-2.99,9.33-8.96,11.87-3.33,1.46-8.86,2.69-16.6,3.66l-14.25,1.76c-16.16,2.05-28.4,5.47-36.72,10.25-15.18,8.79-22.77,23-22.77,42.63,0,15.14,4.72,26.83,14.18,35.08,9.45,8.25,21.42,12.38,35.92,12.38,11.36,0,21.54-2.59,30.55-7.76,7.54-4.39,14.2-9.72,19.98-15.97.29,3.61.68,6.84,1.18,9.67.49,2.83,1.37,5.86,2.64,9.08h45.54v-6.15c-2.74-1.27-4.8-2.88-6.17-4.83ZM301.43,157.91c-.29,13.97-4.24,23.58-11.83,28.86-7.59,5.27-15.89,7.91-24.9,7.91-5.68,0-10.48-1.61-14.4-4.83-4.02-3.12-6.02-8.25-6.02-15.38,0-8.01,3.23-13.92,9.69-17.72,3.82-2.25,10.14-4.15,18.95-5.71l9.4-1.76c4.7-.88,8.4-1.83,11.09-2.86,2.69-1.03,5.36-2.37,8.01-4.03v15.53Z"/>
      <path class="cls-1" d="M490.77,67.68c12.53,8.01,19.73,21.78,21.59,41.31h-41.87c-.59-5.37-2.11-9.62-4.55-12.74-4.6-5.66-12.44-8.5-23.5-8.5-9.11,0-15.6,1.42-19.46,4.25-3.87,2.83-5.8,6.15-5.8,9.96,0,4.79,2.06,8.25,6.17,10.4,4.11,2.25,18.66,6.1,43.63,11.57,16.65,3.91,29.13,9.81,37.46,17.72,8.23,8.01,12.34,18.02,12.34,30.03,0,15.82-5.9,28.74-17.7,38.75s-30.04,15.01-54.72,15.01-43.75-5.3-55.75-15.89-17.99-24.1-17.99-40.5h42.45c.88,7.42,2.79,12.7,5.73,15.82,5.19,5.57,14.79,8.35,28.79,8.35,8.23,0,14.76-1.22,19.61-3.66,4.85-2.44,7.27-6.1,7.27-10.99s-1.96-8.25-5.88-10.69c-3.92-2.44-18.46-6.64-43.63-12.6-18.12-4.49-30.9-10.11-38.34-16.85-7.44-6.64-11.16-16.21-11.16-28.71,0-14.74,5.8-27.42,17.41-38.01,11.61-10.59,27.93-15.89,48.99-15.89s36.28,3.96,48.92,11.87Z"/>
      <path class="cls-1" d="M680.71,209.03c-1.37-1.95-2.2-5.66-2.5-11.13-.2-7.23-.29-13.38-.29-18.46v-73.24c0-19.24-6.81-32.32-20.42-39.26-13.61-6.93-29.18-10.4-46.71-10.4-26.93,0-45.93,7.03-57,21.09-6.95,8.99-10.87,20.46-11.75,34.42h40.4c.98-6.15,2.94-11.03,5.88-14.65,4.11-4.88,11.11-7.32,21.01-7.32,8.81,0,15.5,1.25,20.05,3.74s6.83,7.01,6.83,13.55c0,5.37-2.99,9.33-8.96,11.87-3.33,1.46-8.86,2.69-16.6,3.66l-14.25,1.76c-16.16,2.05-28.4,5.47-36.72,10.25-15.18,8.79-22.77,23-22.77,42.63,0,15.14,4.72,26.83,14.17,35.08,9.45,8.25,21.42,12.38,35.92,12.38,11.36,0,21.54-2.59,30.55-7.76,7.54-4.39,14.2-9.72,19.98-15.97.29,3.61.68,6.84,1.18,9.67.49,2.83,1.37,5.86,2.64,9.08h45.54v-6.15c-2.74-1.27-4.8-2.88-6.17-4.83ZM636.05,157.91c-.29,13.97-4.24,23.58-11.83,28.86-7.59,5.27-15.89,7.91-24.9,7.91-5.68,0-10.48-1.61-14.4-4.83-4.02-3.12-6.02-8.25-6.02-15.38,0-8.01,3.23-13.92,9.7-17.72,3.82-2.25,10.14-4.15,18.95-5.71l9.4-1.76c4.7-.88,8.4-1.83,11.09-2.86,2.69-1.03,5.36-2.37,8.01-4.03v15.53Z"/>
      <rect class="cls-1" x="715.96" y="4.1" width="41.87" height="215.92"/>
      <path class="cls-1" d="M954.81,203.91c-16.16,14.75-36.82,22.12-61.99,22.12-31.14,0-55.62-9.96-73.45-29.88-17.82-20.02-26.73-47.46-26.73-82.32,0-37.69,10.14-66.75,30.41-87.16,17.63-17.77,40.05-26.66,67.28-26.66,36.43,0,63.07,11.92,79.91,35.74,9.3,13.38,14.3,26.81,14.98,40.28h-45.24c-2.94-10.35-6.71-18.16-11.31-23.44-8.23-9.38-20.42-14.06-36.58-14.06s-29.43,6.62-38.93,19.85c-9.5,13.23-14.25,31.96-14.25,56.18s5.02,42.36,15.06,54.42c10.04,12.06,22.79,18.09,38.27,18.09s27.96-5.17,36.28-15.53c4.6-5.57,8.42-13.92,11.46-25.05h44.8c-3.92,23.54-13.91,42.68-29.97,57.42Z"/>
      <path class="cls-1" d="M1153.71,120.12c-1.86-12.5-5.93-23.49-12.19-32.96-6.95-10.74-15.77-18.6-26.44-23.58-10.67-4.98-22.67-7.47-35.99-7.47-22.43,0-40.67,7.37-54.72,22.12-14.05,14.75-21.08,35.94-21.08,63.57,0,29.49,7.79,50.78,23.36,63.87,15.57,13.09,33.54,19.63,53.91,19.63,24.68,0,43.87-7.76,57.58-23.29,8.81-9.76,13.76-19.38,14.84-28.86h-42.75c-2.25,4.69-4.85,8.35-7.79,10.99-5.39,4.88-12.39,7.32-21.01,7.32-8.13,0-15.08-2-20.86-6.01-9.5-6.45-14.54-17.67-15.13-33.69h109.58c.19-13.77-.25-24.32-1.32-31.64ZM1046.48,124.22c1.37-10.35,4.72-18.55,10.06-24.61,5.34-6.05,12.85-9.08,22.55-9.08,8.91,0,16.38,2.86,22.4,8.57,6.02,5.71,9.38,14.09,10.06,25.12h-65.07Z"/>
      <rect class="cls-1" x="1184.12" y="4.1" width="41.87" height="215.92"/>
      <rect class="cls-1" x="1267.7" y="4.1" width="41.87" height="215.92"/>
      <path class="cls-2" d="M1309.56,108.31c-13.86-1.12-27.82-2.2-41.87-3.23v114.94h41.87v-111.71Z"/>
      <path class="cls-2" d="M1184.12,99.59v120.42h41.87v-117.84c-13.87-.91-27.83-1.77-41.87-2.58Z"/>
      <path class="cls-2" d="M1101.49,99.1c6.02,5.71,9.38,14.09,10.06,25.12h-65.07c1.37-10.35,4.72-18.55,10.06-24.61,2.05-2.33,4.43-4.2,7.13-5.64-16.42-.58-32.95-1.1-49.59-1.54-7.18,13.17-10.79,29.61-10.79,49.36,0,29.49,7.79,50.78,23.36,63.87,15.57,13.09,33.54,19.63,53.91,19.63,24.68,0,43.87-7.76,57.58-23.29,8.81-9.76,13.76-19.38,14.84-28.86h-42.75c-2.25,4.69-4.85,8.35-7.79,10.99-5.39,4.88-12.39,7.32-21.01,7.32-8.13,0-15.08-2-20.86-6.01-9.5-6.45-14.54-17.67-15.13-33.69h109.58c.19-13.77-.25-24.32-1.32-31.64-1.21-8.16-3.39-15.66-6.48-22.53-16.79-.86-33.69-1.64-50.71-2.35,1.75,1.1,3.41,2.38,4.96,3.85Z"/>
      <path class="cls-2" d="M928.52,171.53c-8.32,10.35-20.42,15.53-36.28,15.53s-28.23-6.03-38.27-18.09c-10.04-12.06-15.06-30.2-15.06-54.42,0-8.69.62-16.66,1.85-23.94-4.63.03-9.27.05-13.91.09-10.99.09-21.93.21-32.84.37-.91,7.2-1.37,14.78-1.37,22.75,0,34.86,8.91,62.31,26.73,82.32,17.82,19.92,42.31,29.88,73.45,29.88,25.17,0,45.83-7.37,61.99-22.12,16.06-14.74,26.05-33.89,29.97-57.42h-44.8c-3.04,11.13-6.86,19.48-11.46,25.05Z"/>
      <path class="cls-2" d="M715.96,92.72v127.3h41.87V91.7c-14.02.29-27.98.63-41.87,1.03Z"/>
      <g>
        <path class="cls-2" d="M636.2,107.37c0,5.37-2.99,9.33-8.96,11.87-3.33,1.46-8.86,2.69-16.6,3.66l-14.25,1.76c-16.16,2.05-28.4,5.47-36.72,10.25-15.18,8.79-22.77,23-22.77,42.63,0,15.14,4.72,26.83,14.17,35.08,9.45,8.25,21.42,12.38,35.92,12.38,11.36,0,21.54-2.59,30.55-7.76,7.54-4.39,14.2-9.72,19.98-15.97.29,3.61.68,6.84,1.18,9.67.49,2.83,1.37,5.86,2.64,9.08h45.54v-6.15c-2.74-1.27-4.8-2.88-6.17-4.83-1.37-1.95-2.2-5.66-2.5-11.13-.2-7.23-.29-13.38-.29-18.46v-73.24c0-4.4-.37-8.46-1.09-12.22-15.02.54-29.97,1.13-44.83,1.78,2.79,2.64,4.2,6.5,4.2,11.62ZM636.05,157.91c-.29,13.97-4.24,23.58-11.83,28.86-7.59,5.27-15.89,7.91-24.9,7.91-5.68,0-10.48-1.61-14.4-4.83-4.02-3.12-6.02-8.25-6.02-15.38,0-8.01,3.23-13.92,9.7-17.72,3.82-2.25,10.14-4.15,18.95-5.71l9.4-1.76c4.7-.88,8.4-1.83,11.09-2.86,2.69-1.03,5.36-2.37,8.01-4.03v15.53Z"/>
        <path class="cls-2" d="M587.97,97.87c-14.86.77-29.65,1.6-44.35,2.48-.79,3.69-1.32,7.58-1.58,11.71h40.4c.94-5.9,2.79-10.62,5.53-14.19Z"/>
      </g>
      <g>
        <path class="cls-2" d="M466.98,123.93c-24.97-5.47-39.52-9.32-43.63-11.57-1.59-.83-2.87-1.87-3.84-3.09-14.74,1.23-29.39,2.5-43.94,3.83.62,10.86,4.3,19.31,11.06,25.33,7.44,6.74,20.22,12.36,38.34,16.85,25.17,5.96,39.71,10.16,43.63,12.6,3.92,2.44,5.88,6.01,5.88,10.69s-2.42,8.55-7.27,10.99c-4.85,2.44-11.38,3.66-19.61,3.66-14.01,0-23.6-2.78-28.79-8.35-2.94-3.12-4.85-8.4-5.73-15.82h-42.45c0,16.41,6,29.91,17.99,40.5s30.58,15.89,55.75,15.89,42.92-5.01,54.72-15.01,17.7-22.92,17.7-38.75c0-12.01-4.11-22.02-12.34-30.03-8.32-7.91-20.81-13.82-37.46-17.72Z"/>
        <path class="cls-2" d="M470.5,108.98h41.87c-.22-2.28-.51-4.47-.88-6.6-13.94.92-27.8,1.9-41.58,2.91.25,1.16.45,2.39.59,3.68Z"/>
      </g>
      <path class="cls-2" d="M259.55,124.96c-15.06,2.08-26.57,5.4-34.51,9.96-15.18,8.79-22.77,23-22.77,42.63,0,15.14,4.72,26.83,14.18,35.08,9.45,8.25,21.42,12.38,35.92,12.38,11.36,0,21.54-2.59,30.55-7.76,7.54-4.39,14.2-9.72,19.98-15.97.29,3.61.68,6.84,1.18,9.67.49,2.83,1.37,5.86,2.64,9.08h45.54v-6.15c-2.74-1.27-4.8-2.88-6.17-4.83-1.37-1.95-2.2-5.66-2.5-11.13-.2-7.23-.29-13.38-.29-18.46v-63.3c-28.29,2.76-56.21,5.7-83.74,8.82ZM301.43,157.91c-.29,13.97-4.24,23.58-11.83,28.86-7.59,5.27-15.89,7.91-24.9,7.91-5.68,0-10.48-1.61-14.4-4.83-4.02-3.12-6.02-8.25-6.02-15.38,0-8.01,3.23-13.92,9.69-17.72,3.82-2.25,10.14-4.15,18.95-5.71l9.4-1.76c4.7-.88,8.4-1.83,11.09-2.86,2.69-1.03,5.36-2.37,8.01-4.03v15.53Z"/>
      <path class="cls-2" d="M132.94,151.76c0,13.28-4.8,22.27-14.4,26.95-5.29,2.54-12.68,3.81-22.18,3.81h-53.18v-28.7c-14.53,2.24-28.92,4.51-43.19,6.82v59.37h98.13c11.07,0,21.32-.97,30.77-2.93,9.45-1.95,17.65-5.57,24.6-10.84,6.17-4.59,11.31-10.25,15.42-16.99,6.46-10.16,9.7-21.63,9.7-34.42,0-7.21-.96-13.79-2.86-19.75-15,1.93-29.88,3.91-44.63,5.94,1.2,3.13,1.81,6.7,1.81,10.73Z"/>
    </g>
  </g>
</svg>
