<?xml version="1.0" encoding="UTF-8"?>
<svg id="_レイヤー_2" data-name="レイヤー 2" xmlns="http://www.w3.org/2000/svg" xmlns:xlink="http://www.w3.org/1999/xlink" viewBox="0 0 1757.85 396.95">
  <defs>
    <style>
      .cls-1 {
        fill: #ff7be5;
      }

      .cls-2 {
        fill: #9a5bbb;
      }

      .cls-3 {
        fill: url(#_新規グラデーションスウォッチ_1);
      }

      .cls-4 {
        fill: url(#_名称未設定グラデーション_147-3);
      }

      .cls-5 {
        fill: url(#_名称未設定グラデーション_147-2);
      }

      .cls-6 {
        fill: url(#_名称未設定グラデーション_103-3);
      }

      .cls-7 {
        fill: url(#_名称未設定グラデーション_103-2);
      }

      .cls-8 {
        fill: #276dc2;
      }

      .cls-9 {
        fill: #8747aa;
      }

      .cls-10 {
        fill: #165caa;
      }

      .cls-11 {
        fill: url(#_名称未設定グラデーション_147);
      }

      .cls-12 {
        fill: url(#_名称未設定グラデーション_103);
      }

      .cls-13 {
        fill: url(#_名称未設定グラデーション_131);
      }

      .cls-14 {
        fill: #ffd43b;
      }

      .cls-15 {
        fill: #c27be5;
      }

      .cls-16 {
        fill: #e872dc;
      }

      .cls-17 {
        fill: #c55cbc;
      }

      .cls-18 {
        fill: #ffe873;
      }

      .cls-19 {
        fill: #ac6dd1;
      }
    </style>
    <linearGradient id="_名称未設定グラデーション_147" data-name="名称未設定グラデーション 147" x1="319.64" y1="43.11" x2="334.84" y2="1.35" gradientUnits="userSpaceOnUse">
      <stop offset="0" stop-color="#165caa"/>
      <stop offset="1" stop-color="#276dc2"/>
    </linearGradient>
    <linearGradient id="_名称未設定グラデーション_131" data-name="名称未設定グラデーション 131" x1="309.91" y1="70.21" x2="316.78" y2="51.35" gradientUnits="userSpaceOnUse">
      <stop offset="0" stop-color="#165caa"/>
      <stop offset="1" stop-color="#276dc2"/>
    </linearGradient>
    <linearGradient id="_名称未設定グラデーション_147-2" data-name="名称未設定グラデーション 147" x1="315.47" y1="54.57" x2="318.17" y2="47.16" xlink:href="#_名称未設定グラデーション_147"/>
    <linearGradient id="_名称未設定グラデーション_147-3" data-name="名称未設定グラデーション 147" x1="317.58" y1="48.77" x2="320.9" y2="39.64" xlink:href="#_名称未設定グラデーション_147"/>
    <linearGradient id="_名称未設定グラデーション_103" data-name="名称未設定グラデーション 103" x1="-105.36" y1="-363.86" x2="-88.64" y2="-409.8" gradientTransform="translate(430.42 296.1) rotate(-50)" gradientUnits="userSpaceOnUse">
      <stop offset="0" stop-color="#306998"/>
      <stop offset="1" stop-color="#3c78a9"/>
    </linearGradient>
    <linearGradient id="_名称未設定グラデーション_103-2" data-name="名称未設定グラデーション 103" x1="-116.07" y1="-334.05" x2="-108.52" y2="-354.8" xlink:href="#_名称未設定グラデーション_103"/>
    <linearGradient id="_名称未設定グラデーション_103-3" data-name="名称未設定グラデーション 103" x1="-109.95" y1="-351.26" x2="-106.99" y2="-359.4" xlink:href="#_名称未設定グラデーション_103"/>
    <linearGradient id="_新規グラデーションスウォッチ_1" data-name="新規グラデーションスウォッチ 1" x1="-107.63" y1="-357.63" x2="-103.98" y2="-367.67" gradientTransform="translate(430.42 296.1) rotate(-50)" gradientUnits="userSpaceOnUse">
      <stop offset="0" stop-color="#306998"/>
      <stop offset="1" stop-color="#3c78a9"/>
    </linearGradient>
  </defs>
  <g id="_レイヤー_1-2" data-name="レイヤー 1">
    <g>
      <path class="cls-1" d="M618.46,208.65c-5.63-8.69-13.98-15.04-25.05-19.04,7.25-3.71,12.73-7.81,16.45-12.3,6.66-8.01,9.99-18.6,9.99-31.79s-3.33-23.78-9.99-32.96c-11.07-14.94-29.87-22.61-56.41-23h-105.18v215.92h98.13c11.07,0,21.32-.97,30.77-2.93,9.45-1.95,17.65-5.57,24.6-10.84,6.17-4.59,11.31-10.25,15.42-16.99,6.46-10.16,9.7-21.63,9.7-34.42s-2.82-22.95-8.45-31.64ZM491.47,127.06h47.59c10.48,0,19.1,1.12,25.85,3.37,7.83,3.22,11.75,9.86,11.75,19.92,0,9.08-2.94,15.38-8.81,18.9-5.97,3.61-13.71,5.42-23.21,5.42h-53.18v-47.61ZM566.83,264.17c-5.29,2.54-12.68,3.81-22.18,3.81h-53.18v-57.57h53.91c9.4.1,16.7,1.32,21.89,3.66,9.3,4.2,13.95,11.92,13.95,23.14,0,13.28-4.8,22.27-14.4,26.95Z"/>
      <path class="cls-1" d="M794.37,294.49c-1.37-1.95-2.2-5.66-2.5-11.13-.2-7.23-.29-13.38-.29-18.46v-73.24c0-19.24-6.81-32.32-20.42-39.26-13.61-6.93-29.18-10.4-46.71-10.4-26.93,0-45.93,7.03-57,21.09-6.95,8.99-10.87,20.46-11.75,34.42h40.4c.98-6.15,2.94-11.03,5.88-14.65,4.11-4.88,11.11-7.32,21.01-7.32,8.81,0,15.5,1.25,20.05,3.74s6.83,7.01,6.83,13.55c0,5.37-2.99,9.33-8.96,11.87-3.33,1.46-8.86,2.69-16.6,3.66l-14.25,1.76c-16.16,2.05-28.4,5.47-36.72,10.25-15.18,8.79-22.77,23-22.77,42.63,0,15.14,4.72,26.83,14.18,35.08,9.45,8.25,21.42,12.38,35.92,12.38,11.36,0,21.54-2.59,30.55-7.76,7.54-4.39,14.2-9.72,19.98-15.97.29,3.61.68,6.84,1.18,9.67.49,2.83,1.37,5.86,2.64,9.08h45.54v-6.15c-2.74-1.27-4.8-2.88-6.17-4.83ZM749.71,243.37c-.29,13.97-4.24,23.58-11.83,28.86-7.59,5.27-15.89,7.91-24.9,7.91-5.68,0-10.48-1.61-14.4-4.83-4.02-3.12-6.02-8.25-6.02-15.38,0-8.01,3.23-13.92,9.69-17.72,3.82-2.25,10.14-4.15,18.95-5.71l9.4-1.76c4.7-.88,8.4-1.83,11.09-2.86,2.69-1.03,5.36-2.37,8.01-4.03v15.53Z"/>
      <path class="cls-1" d="M939.06,153.14c12.53,8.01,19.73,21.78,21.59,41.31h-41.87c-.59-5.37-2.11-9.62-4.55-12.74-4.6-5.66-12.44-8.5-23.5-8.5-9.11,0-15.6,1.42-19.46,4.25-3.87,2.83-5.8,6.15-5.8,9.96,0,4.79,2.06,8.25,6.17,10.4,4.11,2.25,18.66,6.1,43.63,11.57,16.65,3.91,29.13,9.81,37.46,17.72,8.23,8.01,12.34,18.02,12.34,30.03,0,15.82-5.9,28.74-17.7,38.75s-30.04,15.01-54.72,15.01-43.75-5.3-55.75-15.89-17.99-24.1-17.99-40.5h42.45c.88,7.42,2.79,12.7,5.73,15.82,5.19,5.57,14.79,8.35,28.79,8.35,8.23,0,14.76-1.22,19.61-3.66,4.85-2.44,7.27-6.1,7.27-10.99s-1.96-8.25-5.88-10.69c-3.92-2.44-18.46-6.64-43.63-12.6-18.12-4.49-30.9-10.11-38.34-16.85-7.44-6.64-11.16-16.21-11.16-28.71,0-14.74,5.8-27.42,17.41-38.01,11.61-10.59,27.93-15.89,48.99-15.89s36.28,3.96,48.92,11.87Z"/>
      <path class="cls-1" d="M1129,294.49c-1.37-1.95-2.2-5.66-2.5-11.13-.2-7.23-.29-13.38-.29-18.46v-73.24c0-19.24-6.81-32.32-20.42-39.26-13.61-6.93-29.18-10.4-46.71-10.4-26.93,0-45.93,7.03-57,21.09-6.95,8.99-10.87,20.46-11.75,34.42h40.4c.98-6.15,2.94-11.03,5.88-14.65,4.11-4.88,11.11-7.32,21.01-7.32,8.81,0,15.5,1.25,20.05,3.74s6.83,7.01,6.83,13.55c0,5.37-2.99,9.33-8.96,11.87-3.33,1.46-8.86,2.69-16.6,3.66l-14.25,1.76c-16.16,2.05-28.4,5.47-36.72,10.25-15.18,8.79-22.77,23-22.77,42.63,0,15.14,4.72,26.83,14.17,35.08,9.45,8.25,21.42,12.38,35.92,12.38,11.36,0,21.54-2.59,30.55-7.76,7.54-4.39,14.2-9.72,19.98-15.97.29,3.61.68,6.84,1.18,9.67.49,2.83,1.37,5.86,2.64,9.08h45.54v-6.15c-2.74-1.27-4.8-2.88-6.17-4.83ZM1084.34,243.37c-.29,13.97-4.24,23.58-11.83,28.86-7.59,5.27-15.89,7.91-24.9,7.91-5.68,0-10.48-1.61-14.4-4.83-4.02-3.12-6.02-8.25-6.02-15.38,0-8.01,3.23-13.92,9.7-17.72,3.82-2.25,10.14-4.15,18.95-5.71l9.4-1.76c4.7-.88,8.4-1.83,11.09-2.86,2.69-1.03,5.36-2.37,8.01-4.03v15.53Z"/>
      <rect class="cls-1" x="1164.25" y="89.56" width="41.87" height="215.92"/>
      <path class="cls-1" d="M1403.1,289.37c-16.16,14.75-36.82,22.12-61.99,22.12-31.14,0-55.62-9.96-73.45-29.88-17.82-20.02-26.73-47.46-26.73-82.32,0-37.69,10.14-66.75,30.41-87.16,17.63-17.77,40.05-26.66,67.28-26.66,36.43,0,63.07,11.92,79.91,35.74,9.3,13.38,14.3,26.81,14.98,40.28h-45.24c-2.94-10.35-6.71-18.16-11.31-23.44-8.23-9.38-20.42-14.06-36.58-14.06s-29.43,6.62-38.93,19.85c-9.5,13.23-14.25,31.96-14.25,56.18s5.02,42.36,15.06,54.42c10.04,12.06,22.79,18.09,38.27,18.09s27.96-5.17,36.28-15.53c4.6-5.57,8.42-13.92,11.46-25.05h44.8c-3.92,23.54-13.91,42.68-29.97,57.42Z"/>
      <path class="cls-1" d="M1602,205.58c-1.86-12.5-5.93-23.49-12.19-32.96-6.95-10.74-15.77-18.6-26.44-23.58-10.67-4.98-22.67-7.47-35.99-7.47-22.43,0-40.67,7.37-54.72,22.12-14.05,14.75-21.08,35.94-21.08,63.57,0,29.49,7.79,50.78,23.36,63.87,15.57,13.09,33.54,19.63,53.91,19.63,24.68,0,43.87-7.76,57.58-23.29,8.81-9.76,13.76-19.38,14.84-28.86h-42.75c-2.25,4.69-4.85,8.35-7.79,10.99-5.39,4.88-12.39,7.32-21.01,7.32-8.13,0-15.08-2-20.86-6.01-9.5-6.45-14.54-17.67-15.13-33.69h109.58c.19-13.77-.25-24.32-1.32-31.64ZM1494.76,209.68c1.37-10.35,4.72-18.55,10.06-24.61,5.34-6.05,12.85-9.08,22.55-9.08,8.91,0,16.38,2.86,22.4,8.57,6.02,5.71,9.38,14.09,10.06,25.12h-65.07Z"/>
      <rect class="cls-1" x="1632.4" y="89.56" width="41.87" height="215.92"/>
      <rect class="cls-1" x="1715.98" y="89.56" width="41.87" height="215.92"/>
      <path class="cls-15" d="M1757.85,193.77c-13.86-1.12-27.82-2.2-41.87-3.23v114.94h41.87v-111.71Z"/>
      <path class="cls-15" d="M1632.4,185.06v120.42h41.87v-117.84c-13.87-.91-27.83-1.77-41.87-2.58Z"/>
      <path class="cls-15" d="M1549.77,184.56c6.02,5.71,9.38,14.09,10.06,25.12h-65.07c1.37-10.35,4.72-18.55,10.06-24.61,2.05-2.33,4.43-4.2,7.13-5.64-16.42-.58-32.95-1.1-49.59-1.54-7.18,13.17-10.79,29.61-10.79,49.36,0,29.49,7.79,50.78,23.36,63.87,15.57,13.09,33.54,19.63,53.91,19.63,24.68,0,43.87-7.76,57.58-23.29,8.81-9.76,13.76-19.38,14.84-28.86h-42.75c-2.25,4.69-4.85,8.35-7.79,10.99-5.39,4.88-12.39,7.32-21.01,7.32-8.13,0-15.08-2-20.86-6.01-9.5-6.45-14.54-17.67-15.13-33.69h109.58c.19-13.77-.25-24.32-1.32-31.64-1.21-8.16-3.39-15.66-6.48-22.53-16.79-.86-33.69-1.64-50.71-2.35,1.75,1.1,3.41,2.38,4.96,3.85Z"/>
      <path class="cls-15" d="M1376.81,256.99c-8.32,10.35-20.42,15.53-36.28,15.53s-28.23-6.03-38.27-18.09c-10.04-12.06-15.06-30.2-15.06-54.42,0-8.69.62-16.66,1.85-23.94-4.63.03-9.27.05-13.91.09-10.99.09-21.93.21-32.84.37-.91,7.2-1.37,14.78-1.37,22.75,0,34.86,8.91,62.31,26.73,82.32,17.82,19.92,42.31,29.88,73.45,29.88,25.17,0,45.83-7.37,61.99-22.12,16.06-14.74,26.05-33.89,29.97-57.42h-44.8c-3.04,11.13-6.86,19.48-11.46,25.05Z"/>
      <path class="cls-15" d="M1164.25,178.18v127.3h41.87v-128.32c-14.02.29-27.98.63-41.87,1.03Z"/>
      <g>
        <path class="cls-15" d="M1084.49,192.83c0,5.37-2.99,9.33-8.96,11.87-3.33,1.46-8.86,2.69-16.6,3.66l-14.25,1.76c-16.16,2.05-28.4,5.47-36.72,10.25-15.18,8.79-22.77,23-22.77,42.63,0,15.14,4.72,26.83,14.17,35.08,9.45,8.25,21.42,12.38,35.92,12.38,11.36,0,21.54-2.59,30.55-7.76,7.54-4.39,14.2-9.72,19.98-15.97.29,3.61.68,6.84,1.18,9.67.49,2.83,1.37,5.86,2.64,9.08h45.54v-6.15c-2.74-1.27-4.8-2.88-6.17-4.83-1.37-1.95-2.2-5.66-2.5-11.13-.2-7.23-.29-13.38-.29-18.46v-73.24c0-4.4-.37-8.46-1.09-12.22-15.02.54-29.97,1.13-44.83,1.78,2.79,2.64,4.2,6.5,4.2,11.62ZM1084.34,243.37c-.29,13.97-4.24,23.58-11.83,28.86-7.59,5.27-15.89,7.91-24.9,7.91-5.68,0-10.48-1.61-14.4-4.83-4.02-3.12-6.02-8.25-6.02-15.38,0-8.01,3.23-13.92,9.7-17.72,3.82-2.25,10.14-4.15,18.95-5.71l9.4-1.76c4.7-.88,8.4-1.83,11.09-2.86,2.69-1.03,5.36-2.37,8.01-4.03v15.53Z"/>
        <path class="cls-15" d="M1036.25,183.33c-14.86.77-29.65,1.6-44.35,2.48-.79,3.69-1.32,7.58-1.58,11.71h40.4c.94-5.9,2.79-10.62,5.53-14.19Z"/>
      </g>
      <g>
        <path class="cls-15" d="M915.26,209.39c-24.97-5.47-39.52-9.32-43.63-11.57-1.59-.83-2.87-1.87-3.84-3.09-14.74,1.23-29.39,2.5-43.94,3.83.62,10.86,4.3,19.31,11.06,25.33,7.44,6.74,20.22,12.36,38.34,16.85,25.17,5.96,39.71,10.16,43.63,12.6,3.92,2.44,5.88,6.01,5.88,10.69s-2.42,8.55-7.27,10.99c-4.85,2.44-11.38,3.66-19.61,3.66-14.01,0-23.6-2.78-28.79-8.35-2.94-3.12-4.85-8.4-5.73-15.82h-42.45c0,16.41,6,29.91,17.99,40.5s30.58,15.89,55.75,15.89,42.92-5.01,54.72-15.01,17.7-22.92,17.7-38.75c0-12.01-4.11-22.02-12.34-30.03-8.32-7.91-20.81-13.82-37.46-17.72Z"/>
        <path class="cls-15" d="M918.79,194.45h41.87c-.22-2.28-.51-4.47-.88-6.6-13.94.92-27.8,1.9-41.58,2.91.25,1.16.45,2.39.59,3.68Z"/>
      </g>
      <path class="cls-15" d="M707.84,210.42c-15.06,2.08-26.57,5.4-34.51,9.96-15.18,8.79-22.77,23-22.77,42.63,0,15.14,4.72,26.83,14.18,35.08,9.45,8.25,21.42,12.38,35.92,12.38,11.36,0,21.54-2.59,30.55-7.76,7.54-4.39,14.2-9.72,19.98-15.97.29,3.61.68,6.84,1.18,9.67.49,2.83,1.37,5.86,2.64,9.08h45.54v-6.15c-2.74-1.27-4.8-2.88-6.17-4.83-1.37-1.95-2.2-5.66-2.5-11.13-.2-7.23-.29-13.38-.29-18.46v-63.3c-28.29,2.76-56.21,5.7-83.74,8.82ZM749.71,243.37c-.29,13.97-4.24,23.58-11.83,28.86-7.59,5.27-15.89,7.91-24.9,7.91-5.68,0-10.48-1.61-14.4-4.83-4.02-3.12-6.02-8.25-6.02-15.38,0-8.01,3.23-13.92,9.69-17.72,3.82-2.25,10.14-4.15,18.95-5.71l9.4-1.76c4.7-.88,8.4-1.83,11.09-2.86,2.69-1.03,5.36-2.37,8.01-4.03v15.53Z"/>
      <path class="cls-15" d="M581.23,237.22c0,13.28-4.8,22.27-14.4,26.95-5.29,2.54-12.68,3.81-22.18,3.81h-53.18v-28.7c-14.53,2.24-28.92,4.51-43.19,6.82v59.37h98.13c11.07,0,21.32-.97,30.77-2.93,9.45-1.95,17.65-5.57,24.6-10.84,6.17-4.59,11.31-10.25,15.42-16.99,6.46-10.16,9.7-21.63,9.7-34.42,0-7.21-.96-13.79-2.86-19.75-15,1.93-29.88,3.91-44.63,5.94,1.2,3.13,1.81,6.7,1.81,10.73Z"/>
    </g>
    <g>
      <path class="cls-1" d="M141.85,90.86c-5.9,2.47-16.79,6.12-30.79,5.68-14.54-.46-25.51-5.11-31.26-8.05,1.29-6.06,3.1-12.76,5.68-19.89,4.62-12.77,10.36-23.2,15.63-31.26,2.58-3.23,12.76-15.17,30.31-18,24.94-4.02,42.49,13.98,44.05,15.63-1.72,7.16-4.68,16.27-9.95,26.05-7.61,14.13-16.92,23.85-23.68,29.84Z"/>
      <path class="cls-15" d="M215.01,94.78c-3.6-3.42-15.04-13.39-32.9-15.29-21.5-2.28-36.85,8.78-40.26,11.37,6.76-5.99,16.07-15.71,23.68-29.84,5.27-9.78,8.22-18.89,9.95-26.05,3.46,3.76,13.04,13.1,28.42,16.1,24.05,4.69,42.21-10.06,44.74-12.18-1.21,7.48-4.21,19.93-12.54,33.03-7.13,11.22-15.4,18.56-21.09,22.87Z"/>
      <path class="cls-15" d="M127.64,151.4c-8.24-4.6-27.16-13.62-51.68-11.54-11.51.97-20.91,4.11-27.64,7.05,5.32-3.21,19.14-12.53,26.68-30.65,4.75-11.42,5.09-21.71,4.8-27.75,5.77,2.9,16.23,7.24,30.01,7.9,14.6.71,25.98-3.04,32.04-5.53-3.67,3.44-15.73,15.6-17.74,35.03-1.17,11.36,1.58,20.49,3.53,25.5Z"/>
      <path class="cls-1" d="M198.51,134.51c-12.06,18.35-31.12,28.81-49.4,26.38-9.66-1.28-16.96-5.88-21.46-9.49-1.75-4.03-7.24-18.05-2.4-35.02,4.03-14.12,12.97-22.46,16.61-25.51,3.93-3,16.42-11.73,34.46-11.68,21.56.07,35.59,12.65,38.71,15.59-12.74,7.08-20.66,18.5-19.77,29.7.2,2.49.91,6.02,3.26,10.02Z"/>
      <path class="cls-15" d="M265.02,131.66c-17.68-17.64-40.39-22.31-54.32-13.46-2.75,1.74-8.57,6.18-12.19,16.31-2.34-4-3.06-7.53-3.26-10.02-.89-11.21,7.02-22.62,19.77-29.7,3.3,3.08,15.31,13.54,33.63,14.28,12.61.51,22.17-3.82,26.59-6.19-1.08.63-11.84,7.13-12.38,18.73-.2,4.35,1.1,7.88,2.17,10.06Z"/>
      <path class="cls-1" d="M275.24,102.87c-4.42,2.37-13.98,6.7-26.59,6.19-18.32-.74-30.33-11.2-33.63-14.28,5.7-4.31,13.96-11.65,21.09-22.87,8.32-13.1,11.32-25.54,12.54-33.03,25.11-15.53,49.77-17.5,60.5-6.52,2.16,2.21,4.69,5.89,5.81,12.19-4.02,13.35-12.03,32.26-28.77,48.84-3.65,3.61-7.34,6.75-10.94,9.46Z"/>
      <path class="cls-1" d="M322.09,141.71c-5.12,1.79-14.9,4.44-27.09,2.88-15.32-1.96-25.69-9.44-29.97-12.94-1.07-2.18-2.37-5.71-2.17-10.06.54-11.6,11.3-18.1,12.38-18.73,1.98-1.81,13.97-12.42,31.86-11.01,18.92,1.48,29.35,15.21,30.84,17.25-10.29,2.95-17.68,10.7-18.73,19.64-.69,5.88,1.56,10.66,2.88,12.97Z"/>
      <path class="cls-15" d="M337.94,109.1c-2.44-3.09-10.68-12.69-24.99-15.8-20.26-4.4-35.71,7.92-37.71,9.57-.1.08-.15.12-.15.12,0,0,.3-.26.31-.27.27-.23,11.71-10.64,18.44-19.02,11.87-14.8,20.63-37.81,21.12-39.14.37,7.86,3.21,12.32,5.03,14.55,8.96,10.93,30.01,12.46,51.16,1.51.12,2.43,1.07,30.32-18.65,43.08-4.89,3.16-10,4.72-14.57,5.41Z"/>
      <path class="cls-17" d="M337.94,109.1c9.84,3.7,16.95,3.01,21.48,1.78,22.38-6.06,38.02-40.38,35.36-85.45,2.9,19.12,5.59,47.78,2.19,82.17-2.7,27.27-11.83,84.41-25.77,85.03-13.74.61-26.96-53.87-33.25-83.53Z"/>
      <path class="cls-16" d="M389.93,118.4c.33,14.18-.77,31.08-5.11,49.58-1.32,5.62-2.83,10.92-4.45,15.89,2.18-4.32,5.19-10.73,8.14-18.73,12.57-34.07,11.93-64,11.11-90.33-.39-12.59-1.56-29.48-4.85-49.37"/>
      <path class="cls-19" d="M322.09,141.71c4.71,3.16,12.36,7.14,22.08,7.5,18.12.67,35.83-11.49,45.76-30.82-1.42,7.55-3.81,18.9-7.76,32.42-7.4,25.36-17.69,60.62-29.18,61.04-14.89.55-28.12-57.48-30.9-70.15Z"/>
      <path class="cls-15" d="M371.19,163.52c-8.23-15.65-21.92-25.75-35.98-25.33-3.2.1-7.81.78-13.12,3.52-1.32-2.31-3.57-7.09-2.88-12.97,1.05-8.94,8.45-16.7,18.73-19.64.28,1.1,4.4,16,18.76,20.77,11.75,3.91,25.33-.64,33.23-11.48-2.18,9.56-5.74,20.82-11.72,32.73-2.26,4.51-4.64,8.64-7.01,12.39Z"/>
      <path class="cls-2" d="M371.14,162.9c.48,5.59.55,14.27-2.19,24.37-2.56,9.42-6.59,16.48-9.64,20.98"/>
      <path class="cls-1" d="M105.65,220.7c-8.63-21.27-27.05-35.16-46.37-35.12-13.3.03-23.21,6.64-27.61,10.05-.94-2.36-7.17-18.78,1.77-34.4,4.66-8.14,11.37-12.43,14.88-14.33,7.18-3.12,21.05-8.02,38.98-7.25,19.28.83,33.47,7.79,40.34,11.75,1.66,5.43,5.33,20.03,0,37.44-5.56,18.17-17.56,28.42-21.99,31.86Z"/>
      <path class="cls-15" d="M198.51,178.7c-2.52,4.87-23.18,43.17-63.23,46.28-6.15.48-16.71.44-29.63-4.28,4.43-3.44,16.43-13.69,21.99-31.86,5.33-17.41,1.66-32.02,0-37.44,4.35,3.24,13.41,8.96,25.71,9.49,27.73,1.19,44.42-25.18,45.16-26.38,2.63,5.22,7.07,15.96,5.14,29.02-.54,3.69-1.76,8.64-5.14,15.17Z"/>
      <path class="cls-1" d="M268.63,177.89c-24.55-19.28-39-19.82-47.68-16.66-11.96,4.35-21.01,18.62-22.44,17.46-.76-.61,2.28-4.4,3.39-7.99,4.85-15.67-.57-30.02-3.39-36.2,3.62-10.13,9.45-14.57,12.19-16.31,13.94-8.85,36.64-4.18,54.32,13.46,2.06,5.01,4.35,12.11,5.27,20.85,1.11,10.67-.27,19.53-1.66,25.38Z"/>
      <path class="cls-16" d="M313.31,182.91c3.96,12.25,10.08,15.1,12.06,15.84,12.13,4.56,32.47-8.4,45.77-35.86-2.33,14.57-6.28,35.02-13.26,59.08-8.58,29.58-12.12,31.5-14.12,31.68-5.81.54-15.13-11.99-30.45-70.74Z"/>
      <path class="cls-1" d="M365.35,187.37c-4.35-2.74-14.02-7.99-27.42-8.64-14.53-.71-25.36,4.39-29.87,6.84,10.75-4.34,18.28-13.68,19.4-24.34,1.03-9.86-3.8-17.28-5.38-19.52,5.31-2.73,9.91-3.42,13.12-3.52,21.68-.7,35.31,23.56,35.93,24.7-1.29,2.41-2.62,5.37-3.69,8.87-1.87,6.17-2.2,11.64-2.1,15.6Z"/>
      <path class="cls-15" d="M308.06,185.57c-1.78.88-17.47,8.32-30.95.34-3.98-2.36-6.69-5.42-8.49-8.02.65-2.84,1.17-5.9,1.51-9.16,1.57-15.22-1.74-28.16-5.11-37.07,4.29,3.49,14.66,10.98,29.97,12.94,12.19,1.56,21.97-1.09,27.09-2.88,1.58,2.23,6.41,9.66,5.38,19.52-1.11,10.67-8.64,20-19.4,24.34Z"/>
      <path class="cls-1" d="M364.94,186.92c-1.72,13.95-4.88,29.55-10.44,46.11-1.5,4.46-3.08,8.73-4.72,12.81"/>
      <path class="cls-19" d="M298.38,235.8c11.33,11.04,20.92,11.47,24.09,11.4,19.22-.42,39.51-24.29,42.47-60.28,2.24,13.46,4.19,37.28-5.63,63.52-4.44,11.87-11.49,30.7-23.27,32.12-12.68,1.53-28.32-17.41-37.66-46.75Z"/>
      <path class="cls-15" d="M359.31,234.11c-14.99,17.34-35.46,23.09-48.74,15.91-2.6-1.41-8.24-5.11-12.19-14.22-1.33-4.34-4.27-16,0-29.83,3.84-12.45,11.46-20,14.93-23.05,4.67-1.88,11.75-4.05,20.54-4.23,14.89-.31,26.04,5.27,31.1,8.24.57,5.96.78,13.19,0,21.33-1,10.42-3.32,19.17-5.63,25.86Z"/>
      <path class="cls-15" d="M359.31,233.39c.02,5.99-.64,14.32-3.59,23.74-2.1,6.69-4.81,12.17-7.28,16.35"/>
      <path class="cls-1" d="M298.38,235.8c-.81-1.55-12.85-23.61-33.4-23.93-3.16-.05-7.76.4-13.14,2.8,2.37-2.93,4.82-6.37,7.13-10.37,5.72-9.89,8.36-19.32,9.66-26.41,2.9,4.21,6.11,6.62,8.49,8.02,15.63,9.19,34.97-2.25,36.19-3-3.46,3.05-11.08,10.61-14.93,23.05-4.27,13.84-1.33,25.49,0,29.83Z"/>
      <path class="cls-15" d="M251.84,214.67c-4.77,3.25-14.96,9.25-29.23,10.51-10.79.95-19.51-1.19-24.64-2.9-1.63-3.64-3.65-9.23-4.34-16.28-.52-5.32-1.53-16.21,4.88-27.3,2.32-4.01,8.76-13.82,20.84-18.08,16.33-5.75,36.24,1,49.28,17.28-1.3,7.09-3.94,16.53-9.66,26.41-2.31,3.99-4.76,7.44-7.13,10.37Z"/>
      <path class="cls-1" d="M197.97,222.28c-7.54-.48-23.52-.46-40.84,8.14-22.45,11.15-32.81,29.59-36.08,36.08-20.25-6.61-30.57-22.19-27.69-33.11.36-1.37,2.3-7.85,12.29-12.7,7.52,2.8,17.75,5.27,29.63,4.28,39.6-3.3,60.95-42.01,63.23-46.28-2.25,4.78-6.08,14.69-4.88,27.3.65,6.87,2.6,12.42,4.34,16.28Z"/>
      <path class="cls-15" d="M121.05,266.5c-5.03,9.16-10.92,13.71-15.4,16.14-22.12,12.02-58.51-1.16-88.77-34.53,2.86-2.11,14.36-11.1,17.45-27.41,2.23-11.75-1.06-21.19-2.67-25.07,4.4-3.41,14.31-10.03,27.61-10.05,19.32-.04,37.75,13.85,46.37,35.12-10,4.85-11.93,11.33-12.29,12.7-2.88,10.92,7.45,26.5,27.69,33.11Z"/>
      <path class="cls-16" d="M16.89,248.11c.57,32.66,26.34,57.47,53.92,57.29,21.7-.14,42.32-15.73,50.24-38.9,3.43,1.8,8.2,4.95,11.71,10.34,7.5,11.53,4.03,25.29.34,39.11-1.69,6.31-8.58,30.25-31.88,58.17-12.4,14.86-18.61,22.29-27.05,22.8-15.18.93-27.09-17.77-42.06-41.9-16.85-27.17-43.42-70.03-26.49-96.14,3.43-5.29,7.85-8.67,11.28-10.77Z"/>
      <path class="cls-17" d="M86.74,390.47c10.82-10.97,22.85-26.49,30.76-47.21,1.4-3.67,2.58-7.26,3.57-10.75.23.96.49,1.95.77,2.95.51,1.82,1.05,3.55,1.61,5.18-1.95,3.82-4.15,7.79-6.64,11.87-5.12,8.36-10.47,15.54-15.59,21.6"/>
      <path class="cls-19" d="M121.07,332.85c12.56-20.65,26.57-42.15,42.19-64.21,11.62-16.41,23.24-31.86,34.71-46.36,15.05,63.22,4.18,107.77-4.57,131.72-5.41,14.81-14.81,40.53-29.48,41.49-14.95.98-31.74-24.02-42.86-62.64Z"/>
      <path class="cls-15" d="M200.07,308.22c-7.22,24.26-27.42,40.1-47.94,39.5-16.91-.5-28.41-12.01-31.52-15.34,14.71-23.5,18.49-47.19,8.17-59.75-1.76-2.14-4.22-4.32-7.74-6.12,3.21-6.44,12.03-22,30.64-33.11,19.94-11.89,39.2-11.57,46.27-11.11,3.78,9.01,8.83,24.17,9.18,43.54.33,18.57-3.79,33.36-7.08,42.4Z"/>
      <path class="cls-16" d="M200.07,308.22c3.48-8.33,7.32-16.88,11.57-25.59,12.63-25.93,26.49-48.54,40.2-67.96,8.15,45.92,3.44,81.46-2.18,104.87-3.4,14.17-10.44,43.43-21.32,43.91-13.75.6-25.72-45.14-28.27-55.23Z"/>
      <path class="cls-1" d="M249.3,268.87c-5.91,1.05-15.53,3.57-25.43,10.28-14.67,9.94-21.29,23.18-23.8,29.07,4.32-12.32,9.97-34.29,5.38-60.6-1.72-9.89-4.54-18.38-7.49-25.33,5.15,1.66,13.33,3.58,23.38,2.89,14.81-1.02,25.49-7.16,30.5-10.5-2.16,2.55-12.68,15.47-10.73,33.44,1.09,10.03,5.59,17.22,8.19,20.76Z"/>
      <path class="cls-17" d="M248.97,268.75c1.19,2.14,2.41,4.68,3.46,7.61,1.85,5.13,2.61,9.79,2.9,13.45-.21,2.03-.52,4.75-.98,7.93-.34,2.33-1.2,8-2.96,15.73-.56,2.48-2.5,11-2.9,10.93-.52-.1,3.52-14.77,3.13-32.83-.21-9.63-1.53-17.53-2.66-22.81Z"/>
      <path class="cls-19" d="M248.97,268.75c8-4.25,16.66-9.34,25.69-15.43,8.81-5.95,16.59-11.93,23.39-17.64,4.06,10.96,11.11,34.9,3.26,62.23-1.55,5.4-8.95,31.18-20.01,31.66-13.85.6-26.3-38.73-32.33-60.83Z"/>
      <path class="cls-15" d="M287.07,288.18c-1.44-2.79-6.29-11.35-16.85-16.31-9.23-4.34-17.66-3.5-20.91-3-2.6-3.54-7.1-10.73-8.19-20.76-1.95-17.97,8.57-30.89,10.73-33.44,5.38-2.4,9.98-2.85,13.14-2.8,20.55.31,32.58,22.38,33.4,23.93,1.61,4.58,3.62,12.34,2.69,21.89-1.58,16.2-10.6,26.84-14.01,30.48Z"/>
      <path class="cls-17" d="M2.92,295.54c3.44,3.66,7.13,8.1,10.73,13.38,5.56,8.18,9.25,15.99,11.72,22.44,1.49,5.19,3.37,10.73,5.73,16.52,4.95,12.16,10.77,22.29,16.28,30.42-6.27-7.86-11.11-14.71-14.52-19.73-9.8-14.46-20.6-30.65-27.39-53.37-1.22-4.07-2.04-7.46-2.54-9.67Z"/>
      <path class="cls-16" d="M287.07,288.18c7.73-1.34,17.31-3.92,27.45-9.03,26.29-13.24,39.54-34.99,44.8-45.03-.54,12.48-2.2,31.52-7.69,54.06-5.64,23.15-14.53,59.69-28.31,60.79-17.91,1.43-35.36-57.73-36.25-60.79Z"/>
      <path class="cls-1" d="M344.63,293.6c-15.82,10.76-34.04,13.15-46.9,5.37-2.94-1.78-7.08-4.98-10.67-10.8,2.73-2.96,5.59-6.73,7.98-11.42,8.78-17.22,5.03-34.63,3.33-40.95,4.87,7.95,10.69,11.26,13.73,12.65,14.05,6.4,33.11.84,47.2-14.33-4.78,10.7-9.53,24.21-12.37,40.21-1.22,6.85-1.93,13.31-2.3,19.28Z"/>
      <path class="cls-16" d="M248.44,268.25c1.54,6.54,2.83,14.39,3.18,23.3.63,15.88-1.94,29.17-4.64,38.66"/>
      <path class="cls-1" d="M120.62,332.85c-4.62-3.49-32.66-23.98-66.66-15.78-12.96,3.13-22.54,9.4-28.59,14.29-22.78-23.31-31.18-51.42-21.25-69.92,2.05-3.83,5.74-8.84,12.77-13.33,30.26,33.37,66.64,46.55,88.77,34.53,4.48-2.43,10.37-6.98,15.4-16.14,6.41,3.32,9.82,7.38,11.71,10.34,8.95,14.09,4.25,36.66-12.14,56.01Z"/>
      <path class="cls-1" d="M389.93,118.4c-7.9,10.83-21.48,15.39-33.23,11.48-14.35-4.78-18.47-19.68-18.76-20.77,4.57-.69,9.68-2.25,14.57-5.41,19.72-12.76,18.76-40.64,18.65-43.08,2.67-1.55,5.55-3.56,8.38-6.18,10.85-10.06,14.13-22.77,15.25-29,2.1,15.99,3.18,35.83.97,58.36-1.26,12.8-3.37,24.4-5.82,34.61Z"/>
      <path class="cls-2" d="M202.86,318.55c-.53-1.84-1.05-3.71-1.56-5.61-.43-1.59-.83-3.16-1.23-4.71.36,3.97.65,9.85,0,16.93-.75,8.24-2.41,14.18-2.1,14.25.32.07,2.25-6.11,3.64-13.06.64-3.2,1.02-5.9,1.25-7.79Z"/>
      <path class="cls-17" d="M359.31,234.11c-3.81,7.76-7.94,17.95-10.86,30.3-2.64,11.15-3.59,21.12-3.81,29.19.08,3.18.04,6.57-.18,10.14-.52,8.37-1.9,15.79-3.54,22.06-.1.39,6.87-20.47,12.68-46.69,1.79-8.08,3.21-15.3,4.26-24.24.99-8.4,1.34-15.53,1.46-20.76Z"/>
      <path class="cls-2" d="M290.32,298.41c.72,2.67,1.64,5.55,2.81,8.58.88,2.3,1.81,4.43,2.75,6.39-.59,1.85-1.52,4.18-3.04,6.67-1.76,2.88-3.71,4.99-5.25,6.43,1.37-2.95,3-7.37,3.66-12.94.76-6.44-.1-11.76-.92-15.14Z"/>
      <ellipse class="cls-2" cx="123.96" cy="61" rx="12.54" ry="19.73"/>
      <ellipse class="cls-2" cx="96.42" cy="118.4" rx="11.7" ry="14.15"/>
      <ellipse class="cls-2" cx="227.35" cy="192.64" rx="12.33" ry="15.59"/>
      <ellipse class="cls-2" cx="145.1" cy="198.98" rx="11.74" ry="12.33"/>
      <ellipse class="cls-2" cx="130.42" cy="236.29" rx="11.74" ry="6.17" transform="translate(-100.67 96.87) rotate(-30)"/>
      <ellipse class="cls-2" cx="57.85" cy="241.13" rx="14.37" ry="20.32"/>
      <ellipse class="cls-9" cx="227.83" cy="282.91" rx="13.12" ry="18.4" transform="translate(-23.79 20.93) rotate(-5)"/>
      <ellipse class="cls-9" cx="74.11" cy="322.05" rx="27.01" ry="15.18" transform="translate(-251.38 379.2) rotate(-87)"/>
      <ellipse class="cls-2" cx="165.45" cy="294.77" rx="17.27" ry="22.47" transform="translate(-10.19 5.95) rotate(-2)"/>
      <ellipse class="cls-9" cx="273.89" cy="264.45" rx="12.57" ry="23.31" transform="translate(-9.06 9.72) rotate(-2)"/>
      <ellipse class="cls-9" cx="319.34" cy="301.28" rx="12.57" ry="23.99"/>
      <ellipse class="cls-2" cx="149.9" cy="113.1" rx="17.28" ry="11.74" transform="translate(12.49 241.09) rotate(-80)"/>
      <ellipse class="cls-2" cx="234.78" cy="111.1" rx="2.57" ry="17.07" transform="translate(84.6 323.02) rotate(-80)"/>
      <ellipse class="cls-2" cx="232.65" cy="138.18" rx="12.33" ry="14.26" transform="translate(-33.23 87.9) rotate(-20)"/>
      <ellipse class="cls-2" cx="79.8" cy="166.48" rx="16.63" ry="14.26" transform="translate(-27.7 16.39) rotate(-10)"/>
      <ellipse class="cls-2" cx="200.68" cy="64.88" rx="5.29" ry="17.07" transform="translate(118.56 259.14) rotate(-85)"/>
      <ellipse class="cls-2" cx="280.88" cy="199.88" rx="7.84" ry="6.17" transform="translate(-32.66 343.19) rotate(-60)"/>
      <ellipse class="cls-2" cx="337.46" cy="211.87" rx="15.09" ry="13.22" transform="translate(22.95 456.51) rotate(-70)"/>
      <ellipse class="cls-2" cx="268.63" cy="67.27" rx="21.9" ry="12.33" transform="translate(94.13 282.3) rotate(-65)"/>
      <ellipse class="cls-2" cx="348.45" cy="162.78" rx="10.84" ry="11.87" transform="translate(127.64 477.67) rotate(-80)"/>
      <circle class="cls-2" cx="295.21" cy="165.57" r="10.63" transform="translate(-13.07 25.84) rotate(-4.9)"/>
      <ellipse class="cls-2" cx="294.6" cy="115.46" rx="15.3" ry="14.21" transform="translate(47.31 312.86) rotate(-60)"/>
      <ellipse class="cls-2" cx="376.43" cy="101.81" rx="17.51" ry="10.87" transform="translate(242.2 467.93) rotate(-85)"/>
      <ellipse class="cls-2" cx="330.8" cy="81.84" rx="12.37" ry="16.63" transform="translate(140.75 364.7) rotate(-70)"/>
      <ellipse class="cls-2" cx="350.92" cy="134.51" rx="3.93" ry="17.07" transform="translate(104.5 418.26) rotate(-70)"/>
      <path class="cls-2" d="M89.26,317.66c-.7-12.49-6.36-22.2-13.74-22.58-7.35-.39-13.97,8.61-16,20.89,10.85-1.69,20.96-.6,29.73,1.69Z"/>
      <path class="cls-2" d="M237.91,271.95c-2.77-4.81-7.09-7.77-11.68-7.37-7.22.63-12.35,9.35-11.47,19.47.07.77.17,1.52.3,2.26,2.55-2.48,5.47-4.91,8.81-7.17,4.89-3.31,9.7-5.6,14.04-7.2Z"/>
      <path class="cls-2" d="M273.07,241.16c-6.94.24-12.2,10.87-11.75,23.73.05,1.44.17,2.85.35,4.21,2.66.51,5.56,1.36,8.54,2.76,5.77,2.71,9.83,6.49,12.57,9.82,2.48-4.36,3.92-10.69,3.67-17.67-.45-12.87-6.44-23.1-13.38-22.86Z"/>
      <path class="cls-2" d="M331.9,300.28c-.27-12.79-5.79-23-12.56-23s-12.57,10.74-12.57,23.99c0,.45,0,.9.02,1.34,7.74,1.8,16.48.93,25.11-2.34Z"/>
      <g>
        <circle class="cls-11" cx="327.24" cy="22.23" r="22.22"/>
        <path class="cls-10" d="M328.32,136.4l3.03-60.55-41.61-15.14-36.6,48.34c8.69,7.38,20.48,15.35,35.66,20.78,14.66,5.24,28.37,6.65,39.51,6.58Z"/>
        <path class="cls-8" d="M289.74,60.7c-.63,1.55,9.21,7.63,19.37,11.33,10.2,3.72,21.72,5.41,22.24,3.81.55-1.71-11.48-7.16-19.91-10.22-8.39-3.05-21.03-6.58-21.7-4.92Z"/>
        <path class="cls-13" d="M326.4,74.05l2.26-18.37-23.76-8.65-10.08,15.52c3.79,2.53,9.01,5.5,15.62,7.85,6.13,2.18,11.64,3.18,15.96,3.65Z"/>
        <path class="cls-5" d="M337.54,58.91c-2.5,2.48-7.31,1.03-22.07-4.34-14.76-5.37-19.37-7.36-19.7-10.86-.15-1.63.67-3.08,1.51-4.14l41.76,15.2c-.04,1.35-.35,2.99-1.51,4.14Z"/>
        <path class="cls-4" d="M339.05,54.76l-6.59-10.91c-3.12-.17-7.56-.75-12.56-2.62-4.63-1.74-8.16-3.99-10.56-5.79-4.02,1.37-8.04,2.75-12.06,4.12,5.62,3.09,12.41,6.34,20.3,9.21,7.89,2.87,15.17,4.75,21.47,5.99Z"/>
      </g>
      <g>
        <circle class="cls-12" cx="71.74" cy="121.76" r="24.44"/>
        <path class="cls-14" d="M168.71,201.58l-48.88-45.37-42.18,24.35,14.85,65.02c12.37-2.1,27.42-6.4,42.73-15.36,14.78-8.64,25.66-19.2,33.48-28.64Z"/>
        <path class="cls-18" d="M77.65,180.56c.86,1.62,12.94-2.37,23.25-8.31,10.35-5.97,19.92-14.48,18.94-16.05-1.05-1.67-14.15,4.62-22.69,9.55-8.5,4.91-20.41,13.07-19.49,14.8Z"/>
        <path class="cls-7" d="M114.81,159.11l-13.89-14.89-24.09,13.91,5.95,19.47c4.81-1.4,11.01-3.71,17.66-7.62,6.16-3.62,10.91-7.56,14.36-10.87Z"/>
        <path class="cls-6" d="M109.93,139.02c.32,3.85-4.3,6.89-19.26,15.53-14.96,8.64-19.9,11.12-23.08,8.92-1.48-1.02-2.12-2.75-2.43-4.2l42.34-24.44c1.11.99,2.28,2.41,2.43,4.2Z"/>
        <path class="cls-3" d="M107.5,134.81l-13.85-2.16c-2.35,2.51-5.98,5.84-11.09,8.73-4.74,2.68-9.13,4.05-12.34,4.8-1.68,4.36-3.37,8.72-5.05,13.08,6.58-2.55,14.11-5.97,22.11-10.59s14.73-9.43,20.23-13.85Z"/>
      </g>
    </g>
  </g>
</svg>
